<?xml version="1.0" encoding="utf-8"?>
<!-- Generator: Adobe Illustrator 26.5.0, SVG Export Plug-In . SVG Version: 6.00 Build 0)  -->
<svg version="1.1" id="Capa_1" xmlns="http://www.w3.org/2000/svg" xmlns:xlink="http://www.w3.org/1999/xlink" x="0px" y="0px"
	 viewBox="0 0 1920 1080" style="enable-background:new 0 0 1920 1080;" xml:space="preserve">
<style type="text/css">
	.st0{fill:#62AF81;}
	.st1{fill:#518465;}
</style>
<g id="Grupo_26" transform="translate(120.146 160.413)">
	<path id="Trazado_1" class="st0" d="M-233.8,948.1H830.4c-10.8-8.1-21.8-16.1-32.5-24c-10.9-8.1-22.5-15.1-34.7-21.1
		c-28.4-14-58.3-25.6-87.6-37.4c-6.9-2.8-13.8-5.3-20.9-7.6c-13.2-4.2-26.7-7.5-40.4-10c-40.5-7.3-81.5-13-122.6-15.8
		c-37.6-2.5-75.3-0.8-112.9,0.3c-27.9,0.9-55.7,1.3-83.4-0.2c-37.9-5.3-73.7-20.2-104.1-43.5c-18.8-16.9-36.7-34.9-54.8-52.6
		c-13.5-13.2-27.3-26.2-41.9-38.3c-32.2-26.7-65.1-54.6-101.4-76c-36.7-21.6-77.3-38.1-117.7-51.1c-8-2.6-16.1-4.6-24.3-6.1
		c-27.8-4.9-56.7-8.7-84.8-11.7L-233.8,948.1z"/>
	<path id="Trazado_2" class="st0" d="M1860.4-239.8H875.3C875.2-196,886.9-153,909-115.3c2.5,4.9,5.4,9.7,8.5,14.3
		c14.6,21.2,30.4,41.6,47.2,61.1c3.5,4.1,7.3,8,11.2,11.6c7.5-16.2,16.5-31.8,24.5-47.8c12.5-25,22.9-52.4,20.9-80.3
		c20.1,59.3,36.8,122.5,27.4,184c5.7,3.7,11.7,7,17.8,10c23.4,11.6,48,21.1,72.2,30.8c5.7,2.3,11.4,4.4,17.2,6.3
		c7.3,2.3,14.7,4.3,22.1,6c9.5-17.2,21-33.5,31.4-50.3c14.7-23.8,27.4-50.1,27.9-78.1c11.1,45.9,20.1,93.8,17.5,140.5
		c11.8,1.3,23.6,2.4,35.4,3.2c22.9,1.5,45.9,1.2,68.8,0.5c7.5-16.2,16.5-31.8,24.5-47.8c12.5-25,22.9-52.4,20.9-80.3
		c13.9,41,26.1,83.9,29.3,126.8c6.1,0.1,12.3,0.3,18.4,0.7c31.2,4.3,60.8,16.7,85.8,35.9c15.5,13.9,30.2,28.7,45.2,43.3
		c11.2,10.9,22.5,21.6,34.5,31.5c26.5,22,53.7,45,83.6,62.6c27.5,16.2,57.6,28.9,87.9,39.1c1.8-3.5,3.6-7,5.4-10.5
		c12.5-25,22.9-52.4,20.9-80.3c11.3,33.3,21.5,67.8,26.6,102.6c8.9,1.3,17.9,2.5,26.9,3.6v-556.8
		C1865.9-235.2,1863.1-237.5,1860.4-239.8z"/>
	<g id="Grupo_6" transform="translate(-6207.5 -6738.657)">
		<g id="Grupo_3">
			<path id="Trazado_3" class="st1" d="M6770.9,7379.5c-2.9-1.4-5.8-2.8-8.7-4.3l-6.8,74.3c-0.4-0.2-0.7-0.5-1.1-0.7
				c-17.3-10.4-37.5-14.9-57.2-19.3c-27.1-6-55.4-12-82.3-5.2l0.4,0.1c39.8,10.5,67.3,46.7,104.2,64.9c10,4.8,20.5,8.5,31.3,10.9
				l-3.4,37c2.6,1.9,5.2,3.8,7.8,5.6c12.4,8.3,25.5,15.5,39.2,21.4c4.2,1.7,8.4,3.4,12.6,4.8c17.6,6.1,35.7,10.5,54.1,13
				c5.1,0.6,10.3,1.2,15.5,1.5c1.4,0.1,2.9,0.2,4.3,0.3l16.1-176.5c-20.7-0.2-41.3-2.3-61.6-6.4
				C6813.2,7396.4,6791.5,7389.2,6770.9,7379.5z"/>
			<path id="Trazado_4" class="st1" d="M6770.9,7589.5c-9.3-4.4-18.3-9.3-27-14.9l-18.9,206.6l136.6,12.5l16.2-177.1
				c-14.2-1-28.4-2.9-42.4-5.7C6813.2,7606.4,6791.5,7599.2,6770.9,7589.5z"/>
			<path id="Trazado_5" class="st1" d="M6889,6676.5c20.6,1.5,41.3,0.9,61.8-1.7c4.5-0.6,8.9-1.4,13.4-2.2l20.9-228.9l-136.6-12.5
				l-21.3,233.3c15.1,4.8,30.6,8.3,46.3,10.4C6878.6,6675.6,6883.8,6676.2,6889,6676.5z"/>
			<path id="Trazado_6" class="st1" d="M6766.8,6851.7c14.2,2.6,28.7,3.1,43.1,1.4l-6.7,72.8c1.2,0.5,2.5,0.9,3.7,1.4
				c17.6,6.1,35.7,10.5,54.1,13c5.1,0.6,10.3,1.2,15.5,1.5c20.6,1.5,41.3,0.9,61.8-1.7c0.4-0.1,0.9-0.1,1.3-0.2l21.4-233.6
				c-37.6,5.8-76,5-113.3-2.6c-8-1.6-15.9-3.6-23.7-5.9l-10.5,114.9c-7.7-3.8-15.7-7-23.9-9.4c-19.5-5.4-40.1-4.5-60.3-3.5
				c-27.7,1.4-56.6,3.1-80.7,16.8l0.4,0C6690.3,6816.3,6726.4,6844,6766.8,6851.7z"/>
			<path id="Trazado_7" class="st1" d="M7052.6,7225.7c-12.5-10.7-24.1-22.6-38.2-31.1c-17.3-10.4-37.5-14.9-57.2-19.3
				c-12.6-2.8-25.5-5.6-38.3-7.1l17.8-194.7c-10,1.2-20,1.9-30,2.1c-23.9,0.5-47.8-1.6-71.2-6.3c-12-2.4-23.7-5.6-35.3-9.6
				l-34.7,379.7c9.3,5.6,19,10.5,28.9,14.8c4.2,1.7,8.4,3.4,12.6,4.9c17.6,6.1,35.7,10.5,54.1,13c5.1,0.6,10.3,1.2,15.5,1.5
				c7.8,0.6,15.6,0.8,23.5,0.8l16.8-183.4c20.7,14.7,40,32.8,62.8,44c35.3,17.4,76.5,17.1,115.8,14
				C7079.1,7246.2,7065.1,7236.4,7052.6,7225.7z"/>
		</g>
		<g id="Grupo_4" transform="matrix(0.883, 0.469, -0.469, 0.883, 4309.098, -2887.44)">
			<path id="Trazado_8" class="st1" d="M7864.9,7198.3c-16.7-5.1-32.6-12.6-47.2-22.2c-7.5-5-14.6-10.5-21.4-16.5l-2.8,83.8
				c-1.1-0.9-2.3-1.9-3.4-2.9c-12.5-10.7-24.1-22.6-38.2-31.1c-17.3-10.4-37.5-14.9-57.2-19.3c-27.1-6-55.4-12-82.2-5.2l0.4,0.1
				c39.8,10.5,67.3,46.7,104.2,64.9c23.4,11.5,49.4,15.3,75.7,15.6l-1.6,48.2c2.2,3.4,4.6,6.8,7,10.1c8.3,10.4,17.7,19.8,28.1,28.1
				c20.9,16.2,45.7,26.6,72,30.1c0.5,0.1,1,0.1,1.5,0.2l5.8-176.6c-4.9-0.4-9.8-1-14.6-1.6
				C7882.1,7202.9,7873.4,7200.9,7864.9,7198.3z"/>
			<path id="Trazado_9" class="st1" d="M7864.9,7408.3c-16.7-5.1-32.6-12.6-47.2-22.2c-10.1-6.7-19.5-14.3-28.1-22.7l-6.3,191.6
				c3.2,3,6.6,5.9,10,8.6c20.9,16.2,45.7,26.6,72,30.1c9.1,1.1,18.4,1.5,27.6,1.1l5.9-179.7c-2.6-0.3-5.2-0.6-7.7-1
				C7882.1,7412.9,7873.4,7410.9,7864.9,7408.3z"/>
			<path id="Trazado_10" class="st1" d="M7864.9,6766.6c-16.7-5.1-32.6-12.6-47.2-22.2c-2.5-1.7-5-3.5-7.5-5.3l-12.4,374.3
				c0.1,0.2,0.3,0.4,0.4,0.5c8.3,10.4,17.7,19.8,28.1,28.1c20.9,16.2,45.7,26.6,72,30.1c2.8,0.3,5.6,0.6,8.4,0.8l13.2-398.4
				c-9.7-0.1-19.3-0.8-28.9-2.2C7882.1,6771.1,7873.4,6769.2,7864.9,6766.6z"/>
			<path id="Trazado_11" class="st1" d="M7857.9,7625.6c-8.8-1.2-17.6-3.1-26.1-5.8c-16.7-5.1-32.6-12.6-47.2-22.2
				c-0.9-0.6-1.8-1.3-2.7-1.9l-7.9,238.1l110.8,3.7l6.9-209.8c-1.1,0-2.1,0.1-3.2,0.1C7878.2,7627.8,7868,7627.1,7857.9,7625.6z"/>
			<path id="Trazado_12" class="st1" d="M8010.5,6668.3c-12.5-10.7-24.1-22.6-38.2-31.1c-14.4-8.7-30.8-13.2-47.3-17.1l4.5-137.6
				l-110.8-3.7l-7.2,218.3c4.7,4.7,9.6,9,14.8,13.1c20.9,16.2,45.7,26.6,72,30.1c7.5,0.9,15.1,1.3,22.7,1.2l2.4-72
				c4.6,2.9,9.3,5.6,14.1,8c35.3,17.4,76.5,17.1,115.8,14C8037,6688.8,8022.9,6679,8010.5,6668.3z"/>
		</g>
		<g id="Grupo_5" transform="matrix(0.883, -0.469, 0.469, 0.883, -2675.269, 4045.514)">
			<path id="Trazado_13" class="st1" d="M6404.1,7531.6c-20.2,3.7-40.8,4-61.1,0.8c-8.8-1.2-17.6-3.1-26.1-5.8
				c-8.4-2.6-16.5-5.7-24.5-9.4l3.5,189.9l116.7-2.1l-3.2-174.3C6407.7,7530.9,6405.9,7531.3,6404.1,7531.6z"/>
			<path id="Trazado_14" class="st1" d="M6311.9,6848.3c12.3,5,25.2,8.5,38.3,10.4c13.8,1.7,27.8,1.7,41.6,0
				c1.8-0.3,3.6-0.6,5.3-0.9L6393,6627c-3.4,0.2-6.8,0.4-10.2,0.5c-10.2,0-20.5-0.7-30.6-2.2c-8.8-1.2-17.6-3.1-26.1-5.8
				c-16.7-5.1-32.6-12.6-47.2-22.2c-1.1-0.7-2.2-1.5-3.3-2.3l1.9,105.6c-4.9-4.1-10.2-7.9-15.7-11.3c-17.3-10.4-37.5-14.9-57.2-19.3
				c-27.1-6-55.4-12-82.3-5.2l0.4,0.1c39.8,10.5,67.3,46.7,104.2,64.9c16.1,7.9,33.5,12.2,51.3,14.2l1.6,85.7
				C6289.9,6837.1,6300.6,6843.3,6311.9,6848.3z"/>
			<path id="Trazado_15" class="st1" d="M6287.5,6563.2c20.9,16.2,45.7,26.6,72,30.1c10.9,1.3,21.9,1.6,32.9,0.8l-4.5-244.7
				l-116.7,2.1l3.7,200.5C6278.9,6556,6283.1,6559.7,6287.5,6563.2z"/>
			<path id="Trazado_16" class="st1" d="M6350.3,7290.4c13.8,1.7,27.8,1.7,41.6,0c4.4-0.7,8.8-1.5,13.2-2.5l-3.4-185.7
				c11.1,8.5,22.4,16.6,34.8,22.7c35.3,17.4,76.5,17.1,115.8,14c-16.2-2.9-30.3-12.7-42.7-23.4s-24.1-22.6-38.2-31.1
				c-17.3-10.4-37.5-14.9-57.2-19.3c-4.3-1-8.7-1.9-13.1-2.8l-3.1-171.4c-8,1.2-16.1,1.8-24.2,2c-10.2,0-20.5-0.7-30.6-2.2
				c-8.8-1.2-17.6-3.1-26.1-5.8c-12.6-3.9-24.8-9.1-36.3-15.5l7.3,397.6C6306.6,7279.5,6327.9,7287.5,6350.3,7290.4L6350.3,7290.4z"
				/>
			<path id="Trazado_17" class="st1" d="M6501.9,7374.7c-16.3-2.5-32.4-6.4-48.9-6.1c-15.9,0.3-31.3,4.6-46.4,9.7l-1-57
				c-0.5,0.1-1,0.2-1.5,0.3c-20.2,3.7-40.8,4-61.1,0.8c-8.8-1.2-17.6-3.1-26.1-5.8c-9.7-3-19.2-6.8-28.3-11.3l3.2,174.1
				c17.8,11.1,37.7,18.3,58.5,21c13.8,1.7,27.8,1.7,41.6,0c5.7-0.8,11.4-2,17-3.4l-1.4-76c12.6,1.1,25.2,1.7,37.6,0.4
				c39.2-4,73.9-26.1,105.5-49.6C6535.3,7378,6518.2,7377.2,6501.9,7374.7z"/>
		</g>
	</g>
</g>
</svg>
