<?xml version="1.0" encoding="utf-8"?>
<!-- Generator: Adobe Illustrator 26.5.0, SVG Export Plug-In . SVG Version: 6.00 Build 0)  -->
<svg version="1.1" id="Capa_1" xmlns="http://www.w3.org/2000/svg" xmlns:xlink="http://www.w3.org/1999/xlink" x="0px" y="0px"
	 viewBox="0 0 50 50" style="enable-background:new 0 0 50 50;" xml:space="preserve">
<style type="text/css">
	.st0{fill:#97EAB9;}
	.st1{fill:url(#Elipse_6_00000178201635326659694500000014559803814832777374_);}
	.st2{fill:url(#Elipse_6_00000157993565308258926940000011463625169552263589_);}
	.st3{fill:#FFFFFF;}
	.st4{fill:url(#Elipse_6_00000110469420153956031330000004174390583476848782_);}
	.st5{fill:url(#Elipse_7_00000053506710323600435800000006811096706122010268_);}
	.st6{fill:url(#SVGID_1_);}
</style>
<circle class="st0" cx="25" cy="25" r="23.7"/>
<linearGradient id="Elipse_6_00000124857215131259789210000004240874964104748937_" gradientUnits="userSpaceOnUse" x1="33.1076" y1="19.619" x2="41.1474" y2="19.619">
	<stop  offset="0" style="stop-color:#473F3E"/>
	<stop  offset="1" style="stop-color:#0E0D0C"/>
</linearGradient>
<ellipse id="Elipse_6_00000125593399991957643090000007222226088293381301_" style="fill:url(#Elipse_6_00000124857215131259789210000004240874964104748937_);" cx="37.1" cy="19.6" rx="4" ry="4.2"/>
<linearGradient id="Elipse_6_00000052086800094700897580000000029490461355838123_" gradientUnits="userSpaceOnUse" x1="8.6566" y1="19.619" x2="16.6964" y2="19.619">
	<stop  offset="0" style="stop-color:#473F3E"/>
	<stop  offset="1" style="stop-color:#0E0D0C"/>
</linearGradient>
<ellipse id="Elipse_6_00000026143780799638742420000018002641605981738657_" style="fill:url(#Elipse_6_00000052086800094700897580000000029490461355838123_);" cx="12.7" cy="19.6" rx="4" ry="4.2"/>
<path class="st3" d="M39.4,26c0,0.9-0.1,1.8-0.4,2.6c-2,4.9-7.5,8.4-14.1,8.4s-12.1-3.5-14.1-8.4c-0.2-0.9-0.4-1.8-0.4-2.6
	c0-6.6,6.5-12,14.4-12S39.4,19.4,39.4,26z"/>
<linearGradient id="Elipse_6_00000023247303214410348010000014629291170288782780_" gradientUnits="userSpaceOnUse" x1="28.4101" y1="23.8236" x2="36.4499" y2="23.8236">
	<stop  offset="0" style="stop-color:#473F3E"/>
	<stop  offset="1" style="stop-color:#0E0D0C"/>
</linearGradient>
<ellipse id="Elipse_6_00000007393499908364342220000004407353125755009164_" style="fill:url(#Elipse_6_00000023247303214410348010000014629291170288782780_);" cx="32.4" cy="23.8" rx="4" ry="4.2"/>
<linearGradient id="Elipse_7_00000021800611233950987790000011967818684142630577_" gradientUnits="userSpaceOnUse" x1="14.5261" y1="23.8236" x2="22.5659" y2="23.8236">
	<stop  offset="0" style="stop-color:#473F3E"/>
	<stop  offset="1" style="stop-color:#0E0D0C"/>
</linearGradient>
<ellipse id="Elipse_7_00000023249043726493797740000001903478747916025994_" style="fill:url(#Elipse_7_00000021800611233950987790000011967818684142630577_);" cx="18.5" cy="23.8" rx="4" ry="4.2"/>
<linearGradient id="SVGID_1_" gradientUnits="userSpaceOnUse" x1="20.5792" y1="29.0731" x2="30.3811" y2="29.0731">
	<stop  offset="0" style="stop-color:#473F3E"/>
	<stop  offset="1" style="stop-color:#0E0D0C"/>
</linearGradient>
<path class="st6" d="M30.4,32.2c-0.1-0.4-0.5-0.6-0.9-0.5c0,0-0.1,0-0.1,0c-0.2,0-0.4,0-0.5,0c-0.2,0-0.4-0.1-0.6-0.2
	c-0.2-0.1-0.4-0.2-0.6-0.4c-0.2-0.2-0.4-0.3-0.5-0.5c-0.2-0.3-0.4-0.5-0.5-0.8c-0.2-0.4-0.3-0.9-0.4-1.4c0-0.1,0-0.1,0-0.2
	c0-0.1,0-0.2,0-0.3c1.3,0,2.2,0,2.2-1c0-1.1-1.3-2-2.9-2.1c-1.6,0-2.9,0.9-2.9,2c0,0.9,1,1,2.2,1c0,0.1,0,0.2,0,0.3
	c0,0.1,0,0.1,0,0.2c-0.1,0.5-0.2,0.9-0.4,1.4c-0.1,0.3-0.3,0.6-0.5,0.8c-0.2,0.2-0.3,0.4-0.5,0.5c-0.2,0.1-0.4,0.3-0.6,0.4
	c-0.2,0.1-0.4,0.1-0.6,0.2c-0.2,0-0.4,0-0.5,0c0,0-0.1,0-0.1,0c-0.2,0-0.4,0-0.5,0.1c-0.1,0.1-0.3,0.3-0.3,0.4
	c-0.1,0.4,0.1,0.8,0.5,0.9c0.6,0.1,1.2,0.1,1.7,0c0.6-0.2,1.1-0.4,1.5-0.8c0.5-0.4,0.9-0.9,1.2-1.4c0,0,0,0,0,0.1
	c0.5,1,1.4,1.8,2.5,2.1c0.6,0.2,1.2,0.2,1.9,0.1C30.2,33,30.5,32.5,30.4,32.2z"/>
</svg>
