<?xml version="1.0" encoding="utf-8"?>
<!-- Generator: Adobe Illustrator 26.5.0, SVG Export Plug-In . SVG Version: 6.00 Build 0)  -->
<svg version="1.1" id="Capa_1" xmlns="http://www.w3.org/2000/svg" xmlns:xlink="http://www.w3.org/1999/xlink" x="0px" y="0px"
	 viewBox="0 0 220.1 42" style="enable-background:new 0 0 220.1 42;" xml:space="preserve">
<style type="text/css">
	.st0{enable-background:new    ;}
	.st1{fill:#252120;}
	.st2{fill:#62AF81;}
	.st3{fill:#FFFFFF;}
	.st4{fill:#FFCCCC;}
	.st5{fill:#B1FCD0;}
</style>
<g id="Grupo_23" transform="translate(-83.654 -41.256)">
	<g id="Grupo_16" transform="translate(128.189 41.256)">
		<g id="Grupo_10">
			<g class="st0">
				<path class="st1" d="M28.7,16.6c0,0.9-0.2,1.7-0.5,2.5s-0.8,1.5-1.4,2.1s-1.5,1.1-2.4,1.4c-1,0.4-2.2,0.5-3.5,0.5h-2.5l-1.3,6.1
					h-4l3.8-17.7H23c1,0,1.9,0.1,2.6,0.4c0.7,0.3,1.3,0.6,1.8,1.1c0.5,0.4,0.8,1,1.1,1.6C28.6,15.2,28.7,15.9,28.7,16.6z M24.5,16.9
					c0-0.7-0.2-1.2-0.7-1.6c-0.5-0.4-1.1-0.6-2-0.6h-1.6L19,20.1h1.8c0.6,0,1.2-0.1,1.6-0.3c0.5-0.2,0.8-0.4,1.1-0.7
					c0.3-0.3,0.5-0.6,0.7-1S24.5,17.3,24.5,16.9z"/>
				<path class="st1" d="M34.9,29.1c-0.1,0-0.3,0.1-0.5,0.1s-0.4,0.1-0.6,0.1c-0.2,0-0.4,0.1-0.7,0.1c-0.2,0-0.5,0-0.7,0
					c-0.5,0-1-0.1-1.4-0.2c-0.4-0.1-0.7-0.3-1-0.6s-0.4-0.6-0.6-0.9c-0.1-0.4-0.2-0.7-0.2-1.2c0-0.2,0-0.4,0-0.6
					c0-0.2,0-0.5,0.1-0.7c0-0.2,0.1-0.5,0.1-0.7c0-0.3,0.1-0.5,0.1-0.7c0-0.1,0.1-0.4,0.2-0.8c0.1-0.4,0.2-0.8,0.3-1.3
					s0.2-1,0.3-1.5c0.1-0.5,0.2-1,0.3-1.5s0.2-0.9,0.3-1.3c0.1-0.4,0.1-0.6,0.2-0.8H35l-1.5,7.1c-0.1,0.3-0.1,0.6-0.2,1
					c-0.1,0.4-0.1,0.7-0.1,0.9c0,0.3,0.1,0.5,0.3,0.7c0.2,0.1,0.4,0.2,0.7,0.2c0.2,0,0.4,0,0.6-0.1s0.4-0.1,0.6-0.2
					c-0.1,0.5-0.2,1-0.3,1.5C35.1,28.1,35,28.6,34.9,29.1z M36.2,12.5c0,0.3-0.1,0.6-0.2,0.9s-0.3,0.5-0.5,0.7s-0.5,0.3-0.7,0.4
					c-0.3,0.1-0.6,0.1-0.9,0.1c-0.3,0-0.6,0-0.9-0.1c-0.3-0.1-0.5-0.2-0.7-0.4s-0.3-0.4-0.5-0.6c-0.1-0.2-0.2-0.5-0.2-0.8
					s0.1-0.6,0.2-0.9c0.1-0.3,0.3-0.5,0.5-0.7s0.5-0.3,0.7-0.4c0.3-0.1,0.6-0.1,0.9-0.1c0.3,0,0.6,0,0.9,0.1s0.5,0.2,0.7,0.4
					s0.3,0.4,0.5,0.6C36.2,12,36.2,12.3,36.2,12.5z"/>
				<path class="st1" d="M47.4,20.1c-0.3-0.2-0.6-0.4-1.1-0.6c-0.4-0.2-0.9-0.2-1.4-0.2c-0.6,0-1.1,0.1-1.6,0.4
					c-0.5,0.3-0.9,0.6-1.2,1.1c-0.3,0.4-0.6,0.9-0.8,1.5S41,23.4,41,23.9c0,0.8,0.2,1.5,0.6,2s1,0.7,1.8,0.7c0.2,0,0.5,0,0.8-0.1
					c0.3,0,0.5-0.1,0.8-0.2c0.3-0.1,0.5-0.2,0.8-0.3s0.5-0.2,0.7-0.3l-0.6,3c-0.6,0.3-1.2,0.5-1.8,0.7s-1.3,0.2-1.9,0.2
					c-0.8,0-1.5-0.1-2.2-0.4c-0.6-0.3-1.1-0.6-1.6-1.1c-0.4-0.5-0.7-1-0.9-1.6s-0.3-1.3-0.3-2.1c0-0.7,0.1-1.4,0.2-2.1
					c0.2-0.7,0.4-1.3,0.7-1.9c0.3-0.6,0.7-1.1,1.1-1.6c0.4-0.5,1-0.9,1.5-1.3c0.6-0.4,1.2-0.6,1.9-0.8s1.5-0.3,2.3-0.3
					c0.4,0,0.7,0,1.1,0.1c0.3,0,0.6,0.1,0.9,0.2c0.3,0.1,0.5,0.1,0.7,0.2c0.2,0.1,0.4,0.2,0.5,0.2L47.4,20.1z"/>
				<path class="st1" d="M57.4,22.6l3.2,6.7h-4.3l-2.8-6.5h-0.1L52,29.3h-3.9l4-18.7H56l-2.5,11.5l0,0l5-5.5h4.6L57.4,22.6z"/>
			</g>
			<g class="st0">
				<path class="st2" d="M78.7,22c-0.2,1.2-0.6,2.2-0.9,3.1c-0.4,0.9-0.9,1.7-1.5,2.4c-0.6,0.6-1.4,1.1-2.4,1.5
					c-0.9,0.3-2.1,0.5-3.5,0.5c-1,0-1.9-0.1-2.7-0.4c-0.8-0.3-1.5-0.7-2-1.2s-1-1.1-1.3-1.9c-0.3-0.7-0.4-1.6-0.4-2.5
					c0-0.4,0-0.9,0.1-1.4s0.1-1,0.2-1.4l2-9.2h4l-2,9.2c-0.1,0.4-0.2,0.9-0.2,1.3S68,22.9,68,23.2c0,0.5,0.1,0.9,0.2,1.3
					s0.3,0.7,0.6,0.9c0.3,0.2,0.6,0.4,0.9,0.6s0.7,0.2,1.1,0.2c0.5,0,0.9-0.1,1.3-0.2c0.4-0.1,0.8-0.4,1.1-0.7s0.6-0.7,0.8-1.3
					c0.2-0.5,0.5-1.2,0.6-2l2.2-10.4h4L78.7,22z"/>
				<path class="st2" d="M90.6,20.2L90.6,20.2c-0.2-0.1-0.4-0.2-0.7-0.2c-0.3-0.1-0.5-0.1-0.7-0.1c-0.5,0-0.9,0.1-1.3,0.3
					s-0.7,0.5-1,0.9s-0.5,0.8-0.7,1.3s-0.4,1-0.5,1.6l-1.1,5.3h-3.9l1.7-8c0.1-0.4,0.2-0.8,0.2-1.2c0.1-0.4,0.2-0.8,0.2-1.2
					s0.1-0.8,0.2-1.2s0.1-0.7,0.1-1H87c0,0.2-0.1,0.5-0.1,0.7c0,0.3-0.1,0.5-0.1,0.7s-0.1,0.4-0.1,0.6c0,0.2-0.1,0.3-0.1,0.4l0,0
					c0.5-0.9,1-1.7,1.6-2.1c0.6-0.5,1.2-0.7,2-0.7c0.2,0,0.4,0,0.6,0.1c0.2,0,0.4,0.1,0.6,0.1L90.6,20.2z"/>
			</g>
			<g class="st0">
				<path class="st3" d="M106.7,16.6c0,0.9-0.2,1.7-0.5,2.5s-0.8,1.5-1.4,2.1s-1.5,1.1-2.4,1.4c-1,0.4-2.2,0.5-3.5,0.5h-2.5
					l-1.3,6.1h-4l3.8-17.7h6.1c1,0,1.9,0.1,2.6,0.4c0.7,0.3,1.3,0.6,1.8,1.1s0.8,1,1.1,1.6S106.7,15.9,106.7,16.6z M102.5,16.9
					c0-0.7-0.2-1.2-0.7-1.6c-0.5-0.4-1.1-0.6-2-0.6h-1.6L97,20.1h1.8c0.6,0,1.2-0.1,1.6-0.3c0.5-0.2,0.8-0.4,1.1-0.7
					c0.3-0.3,0.5-0.6,0.7-1S102.5,17.3,102.5,16.9z"/>
				<path class="st3" d="M118.3,25.1c-0.1,0.3-0.1,0.6-0.2,0.9c-0.1,0.4-0.1,0.7-0.1,1.1s-0.1,0.8-0.1,1.1c0,0.4,0,0.7,0,1H114
					c0-0.1,0-0.3,0-0.5s0-0.4,0-0.6s0-0.4,0.1-0.6c0-0.2,0-0.4,0.1-0.5l0,0c-0.2,0.3-0.5,0.6-0.7,0.9c-0.3,0.3-0.5,0.6-0.8,0.8
					s-0.7,0.4-1,0.5s-0.8,0.2-1.3,0.2c-0.6,0-1.2-0.1-1.6-0.3c-0.5-0.2-0.9-0.5-1.2-1c-0.3-0.4-0.6-0.9-0.8-1.5
					c-0.2-0.6-0.3-1.3-0.3-2c0-0.4,0-0.9,0.1-1.4c0.1-0.6,0.2-1.2,0.5-1.8c0.2-0.6,0.5-1.2,0.9-1.8s0.9-1.2,1.5-1.7s1.4-0.9,2.3-1.2
					s1.9-0.5,3.1-0.5c0.5,0,0.9,0,1.4,0.1c0.5,0,0.9,0.1,1.4,0.1c0.5,0.1,0.9,0.1,1.3,0.2s0.8,0.2,1.2,0.2L118.3,25.1z M115,19.1
					c-0.2,0-0.4,0-0.7,0c-0.6,0-1.1,0.1-1.5,0.3s-0.8,0.4-1.1,0.7c-0.3,0.3-0.6,0.6-0.8,1c-0.2,0.4-0.4,0.8-0.5,1.2
					s-0.2,0.8-0.3,1.2c-0.1,0.4-0.1,0.7-0.1,1s0,0.6,0.1,0.8s0.2,0.5,0.3,0.7s0.3,0.3,0.5,0.4c0.2,0.1,0.4,0.2,0.7,0.2
					c0.5,0,0.9-0.1,1.2-0.4c0.4-0.3,0.7-0.6,1-1s0.5-0.9,0.7-1.4s0.3-1.1,0.4-1.6l0.7-2.9C115.4,19.1,115.2,19.1,115,19.1z"/>
				<path class="st3" d="M134.5,19.6c0,0.1,0,0.3,0,0.5s-0.1,0.4-0.1,0.6c0,0.2-0.1,0.4-0.1,0.6s-0.1,0.4-0.1,0.5l-1.5,7.3h-3.9
					l1.5-7.2c0-0.3,0.1-0.5,0.1-0.8s0.1-0.5,0.1-0.6c0-0.4-0.1-0.7-0.3-0.9s-0.5-0.4-0.9-0.4c-0.3,0-0.7,0.1-1.1,0.3
					c-0.4,0.2-0.7,0.5-1,0.8s-0.6,0.7-0.8,1.2s-0.4,0.9-0.5,1.4l-1.3,6.2h-4l1.9-8.6c0.1-0.4,0.1-0.8,0.2-1.1
					c0.1-0.4,0.1-0.7,0.2-1.1s0.1-0.7,0.2-1c0-0.3,0.1-0.6,0.1-0.8h3.8c0,0.2-0.1,0.5-0.1,0.7c0,0.3-0.1,0.5-0.1,0.7
					s-0.1,0.4-0.1,0.6c0,0.2,0,0.3-0.1,0.4l0,0c0.3-0.4,0.6-0.7,1-1.1c0.4-0.3,0.7-0.6,1.2-0.9s0.8-0.4,1.3-0.6
					c0.4-0.1,0.9-0.2,1.3-0.2c1,0,1.8,0.3,2.4,0.9C134.3,17.7,134.5,18.6,134.5,19.6z"/>
				<path class="st3" d="M148.3,25.1c-0.1,0.3-0.1,0.6-0.2,0.9c-0.1,0.4-0.1,0.7-0.1,1.1s-0.1,0.8-0.1,1.1c0,0.4,0,0.7,0,1H144
					c0-0.1,0-0.3,0-0.5s0-0.4,0-0.6s0-0.4,0.1-0.6c0-0.2,0-0.3,0-0.5l0,0c-0.3,0.4-0.5,0.7-0.8,1s-0.6,0.5-0.9,0.8
					c-0.3,0.2-0.7,0.4-1,0.5s-0.8,0.2-1.2,0.2c-0.6,0-1.2-0.1-1.6-0.3c-0.5-0.2-0.9-0.5-1.2-0.9s-0.6-0.9-0.8-1.5s-0.3-1.3-0.3-2.1
					c0-1.1,0.2-2.2,0.6-3.2c0.4-1,0.9-1.9,1.6-2.7c0.7-0.8,1.6-1.4,2.6-1.8c1-0.5,2.2-0.7,3.4-0.7c0.3,0,0.7,0,1,0s0.6,0.1,0.8,0.1
					l1.3-5.9h3.9L148.3,25.1z M145,19.1c-0.2,0-0.4,0-0.7,0c-0.6,0-1.1,0.1-1.5,0.3s-0.8,0.4-1.1,0.7s-0.6,0.7-0.8,1
					c-0.2,0.4-0.4,0.8-0.5,1.2s-0.2,0.8-0.3,1.2s-0.1,0.7-0.1,1s0,0.6,0.1,0.8s0.2,0.5,0.3,0.7s0.3,0.3,0.5,0.4
					c0.2,0.1,0.4,0.2,0.7,0.2c0.5,0,0.9-0.1,1.2-0.4s0.7-0.6,0.9-1c0.3-0.4,0.5-0.9,0.7-1.5c0.2-0.5,0.3-1.1,0.5-1.6l0.6-2.8
					C145.5,19.1,145.3,19.1,145,19.1z"/>
				<path class="st3" d="M163.2,25.1c-0.1,0.3-0.1,0.6-0.2,0.9c-0.1,0.4-0.1,0.7-0.1,1.1s-0.1,0.8-0.1,1.1c0,0.4,0,0.7,0,1h-3.9
					c0-0.1,0-0.3,0-0.5s0-0.4,0-0.6s0-0.4,0.1-0.6c0-0.2,0-0.4,0.1-0.5l0,0c-0.2,0.3-0.5,0.6-0.7,0.9c-0.3,0.3-0.5,0.6-0.8,0.8
					s-0.7,0.4-1,0.5s-0.8,0.2-1.3,0.2c-0.6,0-1.2-0.1-1.6-0.3c-0.5-0.2-0.9-0.5-1.2-1c-0.3-0.4-0.6-0.9-0.8-1.5s-0.3-1.3-0.3-2
					c0-0.4,0-0.9,0.1-1.4c0.1-0.6,0.2-1.2,0.5-1.8c0.2-0.6,0.5-1.2,0.9-1.8s0.9-1.2,1.5-1.7s1.4-0.9,2.3-1.2
					c0.9-0.3,1.9-0.5,3.1-0.5c0.5,0,0.9,0,1.4,0.1c0.5,0,0.9,0.1,1.4,0.1c0.5,0.1,0.9,0.1,1.3,0.2s0.8,0.2,1.2,0.2L163.2,25.1z
					 M160,19.1c-0.2,0-0.4,0-0.7,0c-0.6,0-1.1,0.1-1.5,0.3s-0.8,0.4-1.1,0.7s-0.6,0.6-0.8,1s-0.4,0.8-0.5,1.2s-0.2,0.8-0.3,1.2
					s-0.1,0.7-0.1,1s0,0.6,0.1,0.8s0.2,0.5,0.3,0.7s0.3,0.3,0.5,0.4c0.2,0.1,0.4,0.2,0.7,0.2c0.5,0,0.9-0.1,1.2-0.4
					c0.4-0.3,0.7-0.6,1-1s0.5-0.9,0.7-1.4s0.3-1.1,0.4-1.6l0.7-2.9C160.4,19.1,160.2,19.1,160,19.1z"/>
			</g>
		</g>
	</g>
</g>
<g id="Grupo_22" transform="translate(-143.275 -3.665)">
	<circle id="Elipse_7" class="st1" cx="160" cy="25.1" r="6.5"/>
	<circle id="Elipse_8" class="st1" cx="174.9" cy="15.7" r="6.5"/>
	<path id="Trazado_46" class="st3" d="M189.9,32.8c0.3-1.3,0.5-2.6,0.5-3.9c0-8.6-7.3-15.6-16.3-15.6s-16.3,7-16.3,15.6
		c0,1.3,0.2,2.6,0.5,3.9C158.3,32.8,189.9,32.8,189.9,32.8z"/>
	
		<ellipse id="Elipse_16" transform="matrix(0.7771 -0.6293 0.6293 0.7771 20.3926 116.5951)" class="st4" cx="174.8" cy="29.5" rx="1.6" ry="2"/>
	<path id="Trazado_47" class="st1" d="M177.8,27.1c-0.2-0.2-0.6-0.2-0.8,0.1c0,0,0,0-0.1,0.1s-0.2,0.2-0.3,0.2
		c-0.1,0.1-0.3,0.1-0.5,0.2c-0.4,0.1-0.8,0-1.1-0.1c-0.2-0.1-0.5-0.2-0.7-0.3c-0.3-0.2-0.6-0.5-0.8-0.7l-0.1-0.1
		c0-0.1-0.1-0.1-0.1-0.2c0.9-0.5,1.4-0.9,1-1.6c-0.5-0.7-1.7-0.8-2.7-0.1s-1.5,1.8-1,2.5c0.4,0.6,1,0.2,1.8-0.3
		c0,0.1,0.1,0.1,0.1,0.2l0.1,0.1c0.2,0.3,0.3,0.7,0.3,1c0,0.2,0.1,0.5,0,0.8c0,0.2-0.1,0.4-0.1,0.6c-0.1,0.2-0.2,0.4-0.3,0.5
		s-0.2,0.3-0.3,0.4c-0.1,0.1-0.2,0.2-0.3,0.2h-0.1c-0.1,0-0.3,0.1-0.3,0.3c-0.1,0.3,0,0.6,0.2,0.7c0.1,0.1,0.3,0.1,0.4,0
		c0.4-0.2,0.8-0.4,1.1-0.8c0.3-0.3,0.5-0.7,0.6-1.1c0.1-0.5,0.2-0.9,0.1-1.4l0,0c0.8,0.4,1.7,0.5,2.5,0.3c0.5-0.1,0.9-0.4,1.2-0.7
		C178,27.6,178,27.3,177.8,27.1z"/>
	<ellipse id="Elipse_9" class="st1" cx="176.1" cy="20.5" rx="4" ry="2.9"/>
	
		<ellipse id="Elipse_10" transform="matrix(0.2127 -0.9771 0.9771 0.2127 103.368 183.6541)" class="st1" cx="165.7" cy="27.7" rx="4" ry="2.9"/>
	<path id="Trazado_48" class="st1" d="M181.4,26.7c1,1.9,1.3,4.1,1,6.2h11c-0.8-2.3-0.4-5-0.3-7.5c0.2-1.2,0-2.3-0.4-3.4
		c-0.5-1.1-1.6-1.8-2.8-1.6c-0.1,0.1-0.3,0.1-0.5,0.1c-0.3-0.1-0.4-0.4-0.6-0.6c-0.3-0.3-0.7-0.5-1.1-0.4c-0.4,0-0.8,0.2-1.1,0.4
		c-0.4,0.4-1,0.5-1.4,0.2c-0.5-0.2-1.1-0.3-1.7-0.1c-0.6,0.2-1,0.6-1.2,1.2c-0.1,0.3,0,0.7-0.3,0.9c-0.2,0.1-0.3,0.2-0.5,0.2
		c-0.8,0.4-1.3,1.2-1.1,2.1C180.7,25.1,181,25.9,181.4,26.7z"/>
	
		<ellipse id="Elipse_11" transform="matrix(0.9988 -4.799497e-02 4.799497e-02 0.9988 -1.018 8.9995)" class="st5" cx="186.9" cy="25.7" rx="3.1" ry="2"/>
	<circle id="Elipse_12" class="st5" cx="190.2" cy="22.8" r="0.9"/>
	<circle id="Elipse_13" class="st5" cx="187.5" cy="22" r="0.9"/>
	<circle id="Elipse_14" class="st5" cx="184.9" cy="22.4" r="0.9"/>
	<circle id="Elipse_15" class="st5" cx="182.8" cy="24.2" r="0.9"/>
</g>
</svg>
