<?xml version="1.0" encoding="utf-8"?>
<!-- Generator: Adobe Illustrator 26.5.0, SVG Export Plug-In . SVG Version: 6.00 Build 0)  -->
<svg version="1.1" id="Capa_1" xmlns="http://www.w3.org/2000/svg" xmlns:xlink="http://www.w3.org/1999/xlink" x="0px" y="0px"
	 viewBox="0 0 270 370" style="enable-background:new 0 0 270 370;" xml:space="preserve">
<style type="text/css">
	.st0{fill:url(#Trazado_18_00000183239998285025100250000005343717698760359316_);}
	.st1{fill:url(#Trazado_19_00000111181723912962653120000004540434333004617344_);}
	.st2{fill:url(#Trazado_20_00000010302145739090206660000004126116935821449628_);}
	.st3{fill:#70CC96;}
	.st4{fill:url(#Trazado_22_00000121275056726463872570000013466182642755797686_);}
	.st5{fill:url(#Trazado_23_00000093875725542897569000000007863672852918462389_);}
	.st6{fill:url(#Trazado_24_00000094615565072247792820000009940811438814954417_);}
	.st7{fill:url(#Elipse_1_00000005964149689976381410000004896683757343540356_);}
	.st8{fill:url(#Elipse_2_00000039837805463456157670000012936430411102001838_);}
	.st9{fill:url(#Trazado_25_00000121263719776037506200000012320585542124298667_);}
	.st10{fill:#E5DFDC;}
	.st11{fill:#473F3E;}
	.st12{fill:#97EAB9;}
	.st13{fill:url(#Trazado_30_00000173848398587361467290000006140191582246490020_);}
	.st14{fill:url(#Trazado_31_00000183244355855112278990000012958896239289293242_);}
</style>
<g id="Grupo_7" transform="translate(-7312.345 -7076.289)">
	
		<linearGradient id="Trazado_18_00000145748946985193275800000015168378911089368742_" gradientUnits="userSpaceOnUse" x1="7423.8916" y1="7271.7549" x2="7422.8799" y2="7271.9199" gradientTransform="matrix(55.9138 5.9005 9.8527 -93.3661 -479223.75 642533)">
		<stop  offset="0" style="stop-color:#473F3E"/>
		<stop  offset="1" style="stop-color:#0E0D0C"/>
	</linearGradient>
	<path id="Trazado_18" style="fill:url(#Trazado_18_00000145748946985193275800000015168378911089368742_);" d="M7500,7366.6
		c0.8,21.1,9.9,73.3-13.4,68.2c-31.6-9.2-37.9-71.6-34.1-82.1s17.4-15.9,30.5-12.1S7499.6,7355.4,7500,7366.6z"/>
	
		<linearGradient id="Trazado_19_00000034056231095529797790000015715135176379789199_" gradientUnits="userSpaceOnUse" x1="7419.5034" y1="7272.1323" x2="7419.6934" y2="7271.6323" gradientTransform="matrix(156.2578 0 0 -105.9585 -1151938.125 777824.5625)">
		<stop  offset="0" style="stop-color:#E5DFDC"/>
		<stop  offset="1" style="stop-color:#FFFFFF"/>
	</linearGradient>
	<path id="Trazado_19" style="fill:url(#Trazado_19_00000034056231095529797790000015715135176379789199_);" d="M7509.8,7282.4
		c-3.8-3.1-9.2-4.2-14.3-5c-28.2-4.2-58.8-3.1-83.3,9.7c-11.8,6.2-21.8,14.9-34,20.5c-1.6,0.7-3.3,1.4-5,2.1
		c-9.5,4-15.1,12.2-14.1,20.8l0,0.1c0.8,6.2,2.3,12.2,4.7,17.9c2.3,5.8,5.5,11.2,9.5,16c1.9,2.4,4.1,4.6,6.3,6.6
		c4.6,3.8,10.2,6.1,16.2,6.6c3.8,0.4,7.5,0.7,11.2,1c12.3,1.3,24.8,3.4,37,1.4c11.1-1.8,21.1-7,29.7-13.3
		c23-16.5,38.3-40.9,41.2-66.5C7515.7,7294.2,7515.3,7286.9,7509.8,7282.4z"/>
	
		<linearGradient id="Trazado_20_00000065788930476143383780000011608347124024140170_" gradientUnits="userSpaceOnUse" x1="7421.4688" y1="7271.853" x2="7420.9019" y2="7271.3198" gradientTransform="matrix(83.2222 0 0 -98.4741 -610072.3125 723254)">
		<stop  offset="0" style="stop-color:#473F3E"/>
		<stop  offset="1" style="stop-color:#0E0D0C"/>
	</linearGradient>
	<path id="Trazado_20" style="fill:url(#Trazado_20_00000065788930476143383780000011608347124024140170_);" d="M7580,7145.5
		c-0.7,0.7-1.5,1.3-2.3,1.8c-0.8,0.6-1.6,1.2-2.3,1.8c-1.5,1.1-2.9,2.3-4.2,3.7c-1,1.2-1.7,2.6-2,4.1c-0.3,1.8-0.2,3.7,0.3,5.4
		c0.4,2,1,3.9,1.5,5.9c2,7.3,2,15.5-2.6,21.9c-2.3,2.9-4.9,5.5-7.9,7.7c-3.1,2.5-6.3,5-9.4,7.6c-6.3,5.3-12.2,10.9-17.9,16.8
		c-5.2,5.3-10.4,10.8-16.7,14.8c-1.2,0.8-2.5,1.5-3.8,2.2c0.5-6.4-0.9-12.8-2.6-18.9c-0.9-3.2-1.8-6.4-2.8-9.5
		c-0.9-3-2.1-5.8-3.7-8.6c-1.5-2.6-3.5-5-5.8-6.9c6.3-3.6,12.3-7.5,18.1-11.8c6-4.4,11.7-9,17.5-13.6c5.8-4.6,11.6-9.3,17.6-13.7
		c5.9-4.4,12.1-8.4,18.5-12.1c1.6-0.9,3.3-1.8,5-2.6c0.8-0.5,1.7-0.8,2.6-0.9c0.9,0,1.8,0.3,2.6,0.8c0.7,0.3,1.2,1.1,1.3,1.9
		C7580.9,7144.2,7580.6,7145,7580,7145.5z"/>
	<path id="Trazado_21" class="st3" d="M7514.5,7232.6c-0.6,2.5-1.7,4.8-3.2,6.9c-1.4,1.9-3.1,3.5-5,4.9c-4.2,2.9-8.7,5.2-13.5,6.9
		c-1,0.4-2,0.8-3,1.1c-2.2-4.7-4.6-9.3-7.3-13.8c-2.8-4.7-5.9-9.2-9.3-13.5c-1.7-2.1-3.7-4-4.9-6.3c-0.6-1.1-0.9-2.3-0.9-3.5
		c0.2-1.3,0.7-2.4,1.5-3.4c0.9-1.1,1.8-2.2,2.8-3.2c1-1.1,1.9-2.1,2.9-3.1c2-2.1,4.2-4.1,6.4-6c2-1.9,4.3-3.6,6.8-4.9
		c1.2-0.6,2.5-1,3.9-1.1c1.3-0.1,2.7,0.1,4,0.5c2.5,0.9,4.8,2.3,6.7,4.2c5.6,5.2,9.7,11.9,11.7,19.4
		C7515.4,7222.5,7515.6,7227.7,7514.5,7232.6z"/>
	
		<linearGradient id="Trazado_22_00000098933586342494670390000018062286774382256055_" gradientUnits="userSpaceOnUse" x1="7427.2827" y1="7269.7642" x2="7426.9805" y2="7269.2642" gradientTransform="matrix(30.9902 0 0 -34.7349 -222687.625 259611.7344)">
		<stop  offset="0" style="stop-color:#473F3E"/>
		<stop  offset="1" style="stop-color:#0E0D0C"/>
	</linearGradient>
	<path id="Trazado_22" style="fill:url(#Trazado_22_00000098933586342494670390000018062286774382256055_);" d="M7484.8,7117.6
		c2.3,3.1,4.3,6.3,6,9.7c0,0,0-0.1,0.1-0.1c5.9-14.6,2.6-29.6-7.2-33.6c-6.6-2.7-14.5,0.3-20.8,6.9
		C7478.1,7107.6,7484.8,7117.6,7484.8,7117.6z"/>
	
		<linearGradient id="Trazado_23_00000070093293077402020240000013860283433063726492_" gradientUnits="userSpaceOnUse" x1="7419.5605" y1="7271.9756" x2="7420.1294" y2="7272.1797" gradientTransform="matrix(153.0176 0 0 -149.7939 -1127913.75 1096457.875)">
		<stop  offset="0" style="stop-color:#E5DFDC"/>
		<stop  offset="1" style="stop-color:#FFFFFF"/>
	</linearGradient>
	<path id="Trazado_23" style="fill:url(#Trazado_23_00000070093293077402020240000013860283433063726492_);" d="M7486.4,7116.8
		c0,0-16.9-22.8-58.6-24.2c-6.4-4.3-13-8.2-19.8-12c1.8,3.9,3,8,3.4,12.3c-47.3,3.8-47,32.2-56.5,48.9c-4.1,7.2-5.6,27.7-5.3,35.8
		c0.3,9.9,7,39,7,39s11,8.8,44.7,12.8c21.8,2.6,43.6,0.5,54.2-7c3.6-2.5,8.2-11.8,8.2-11.8s27.5-9.9,37.1-41.3
		C7508.9,7142.4,7486.4,7116.8,7486.4,7116.8z"/>
	
		<linearGradient id="Trazado_24_00000179612715504071428790000004181946341821138359_" gradientUnits="userSpaceOnUse" x1="7423.0571" y1="7271.1978" x2="7423.3271" y2="7270.5938" gradientTransform="matrix(52.9399 0 0 -58.0815 -385621.375 429422.0938)">
		<stop  offset="0" style="stop-color:#473F3E"/>
		<stop  offset="1" style="stop-color:#0E0D0C"/>
	</linearGradient>
	<path id="Trazado_24" style="fill:url(#Trazado_24_00000179612715504071428790000004181946341821138359_);" d="M7345.7,7152.1
		c2.5,2.4,6.4,2.3,8.8-0.2c0.2-0.2,0.4-0.4,0.5-0.6l0-0.1c1.6-2.4,2.8-5,3.4-7.8c0.8-2.7,1.3-5.5,2.1-8.3c1.6-5.8,4.6-11.2,8.7-15.5
		c4.2-4.3,9.3-7.4,15-9.2c0.3-0.1,0.5-0.2,0.8-0.3c3.3-1,5.1-4.6,4.1-7.9c-0.5-1.7-1.8-3.1-3.4-3.8c-0.6-0.3-1.3-0.5-1.9-0.8
		c-16.9-6.2-36.8,2.5-44.4,19.3C7333.7,7129.7,7336.6,7143.4,7345.7,7152.1z"/>
	
		<linearGradient id="Elipse_1_00000017503373330543115430000003436429662814464944_" gradientUnits="userSpaceOnUse" x1="7422.4863" y1="7265.2227" x2="7422.4863" y2="7264.2227" gradientTransform="matrix(37.3485 -19.795 -13.8214 -26.0777 -169390.2656 343523.4375)">
		<stop  offset="0" style="stop-color:#473F3E"/>
		<stop  offset="1" style="stop-color:#0E0D0C"/>
	</linearGradient>
	<path id="Elipse_1" style="fill:url(#Elipse_1_00000017503373330543115430000003436429662814464944_);" d="M7412.8,7134.9
		c10.3-5.5,21.8-4.1,25.6,3.1c3.8,7.2-1.4,17.5-11.8,22.9c-10.3,5.5-21.8,4.1-25.6-3.1C7397.2,7150.7,7402.5,7140.4,7412.8,7134.9z"
		/>
	
		<linearGradient id="Elipse_2_00000120531314628066266200000002883912809823108287_" gradientUnits="userSpaceOnUse" x1="7425.5425" y1="7263.4785" x2="7425.5425" y2="7262.4785" gradientTransform="matrix(16.5531 -12.319 -16.1519 -21.7034 1874.1433 256240.2344)">
		<stop  offset="0" style="stop-color:#473F3E"/>
		<stop  offset="1" style="stop-color:#0E0D0C"/>
	</linearGradient>
	<path id="Elipse_2" style="fill:url(#Elipse_2_00000120531314628066266200000002883912809823108287_);" d="M7471.1,7123.2
		c4.6-3.4,11.9-1.3,16.4,4.7c4.5,6,4.4,13.6-0.2,17c-4.6,3.4-11.9,1.3-16.4-4.7C7466.4,7134.2,7466.5,7126.6,7471.1,7123.2z"/>
	
		<linearGradient id="Trazado_25_00000100360500744265574750000018307141077279037574_" gradientUnits="userSpaceOnUse" x1="7435.8096" y1="7262.8115" x2="7435.8096" y2="7261.8115" gradientTransform="matrix(15.915 0 0 -11.2129 -110882.1797 88579.6875)">
		<stop  offset="0" style="stop-color:#473F3E"/>
		<stop  offset="1" style="stop-color:#0E0D0C"/>
	</linearGradient>
	<path id="Trazado_25" style="fill:url(#Trazado_25_00000100360500744265574750000018307141077279037574_);" d="M7466.7,7145.5
		c-1.3-2.9-5.8-3.8-10-1.9s-6.5,5.8-5.2,8.7s5,0.8,9.2-1.1S7468,7148.4,7466.7,7145.5z"/>
	<path id="Trazado_26" class="st10" d="M7420.7,7146.7c0.4,2.2,4.4,3.3,8.9,2.6s7.9-3.2,7.6-5.4s-4.5-1.2-9-0.4
		S7420.3,7144.5,7420.7,7146.7z"/>
	<path id="Trazado_27" class="st10" d="M7470.2,7135.7c0.1,2.2,3.2,3.8,6.8,3.6s6.4-2.2,6.3-4.4s-3.4-1.7-7-1.5
		S7470.1,7133.5,7470.2,7135.7z"/>
	<path id="Trazado_28" class="st11" d="M7446.2,7161.5c6.9,5.2,16.6,4.6,22.8-1.5c1.6-1.5,2.8-3.3,3.7-5.3c0.2-0.4,0.3-0.9,0.2-1.4
		c-0.1-0.5-0.4-0.9-0.8-1.1c-0.4-0.2-0.9-0.3-1.4-0.2c-0.5,0.1-0.9,0.4-1.1,0.8c-0.3,0.7-0.7,1.4-1.1,2c-0.2,0.3-0.4,0.6-0.6,0.9
		c0,0.1-0.2,0.3,0,0.1s0,0-0.1,0.1c-0.1,0.2-0.3,0.3-0.4,0.5c-0.5,0.6-1.1,1.1-1.6,1.6c-0.1,0.1-0.3,0.2-0.4,0.4
		c-0.1,0-0.3,0.3-0.1,0.1s0,0-0.1,0.1c-0.3,0.2-0.6,0.4-0.9,0.6c-0.7,0.5-1.5,0.9-2.3,1.2l0.4-0.2c-1.2,0.5-2.6,0.9-3.9,1.1l0.5-0.1
		c-1.4,0.2-2.8,0.2-4.2,0l0.5,0.1c-1.4-0.2-2.8-0.6-4.2-1.1l0.4,0.2c-1.2-0.5-2.3-1.2-3.4-2c-0.4-0.2-0.9-0.3-1.4-0.2
		c-0.5,0.1-0.9,0.4-1.1,0.8c-0.2,0.4-0.3,0.9-0.2,1.4C7445.5,7160.9,7445.8,7161.3,7446.2,7161.5L7446.2,7161.5z"/>
	<path id="Trazado_29" class="st12" d="M7517.9,7288.9c-0.3-1.2-1-2.4-1.8-3.4c-0.9-1.1-1.8-2.1-2.8-3.1c-2-2-4.3-3.9-6.4-5.8
		c-8.8-8.2-12.4-18.4-15.9-28.4c-3.2-9.3-6.8-18.9-14.7-26.6c-2-1.9-4.2-3.6-6.5-5.1c-2.4-1.4-5.3-2.5-8.4-1.7
		c-1.4,0.4-2.8,1-4.1,1.8c-1.4,0.8-2.7,1.6-4.1,2.3c-2.9,1.5-5.9,2.8-9,3.9c-13.3,4.9-28.2,6.5-42.9,6.4c-7.9-0.1-15.9-0.6-23.7-1.5
		c-5.9-0.6-12-1.5-17.1-3.8c-2.3-1-4.5-2.4-6.3-4.2c0-0.2-0.2-0.4-0.5-0.3c-6.1,1-10.7,4.7-14.3,8.3c-2,2-3.8,4.1-5.8,6
		c-1,1-2.1,1.9-3.3,2.7c-1.3,0.9-2.6,1.7-4,2.4c-2.9,1.5-6,3.4-6.2,6.3c0,0.2,0.2,0.3,0.4,0.3c4.5,0,9,0.5,13.3,1.7
		c4.1,1.1,8.1,2.8,11.7,5c3.3,2.1,6.3,4.8,8.7,8c2.3,3,4.2,6.2,5.8,9.6c0.8,1.7,1.5,3.3,2.2,5c0.6,1.5,1,3.4,3,4.2
		c0.3,0.1,0.7,0.2,1,0.3c-0.1,0.1-11.5,9-11.5,9.1c1.6,5.9,6.3,11.9,8,17.8c0.8,2.9,10-3.1,10.8-0.2c0.4,1.5,0.8,2.9,1.2,4.4
		c0.1,1.2,0.8,2.2,1.7,2.9c2.3,1.4,5.7-0.2,7.9-1c3.4-1.3,6.8-2.6,10.3-3.9c6.9-2.6,13.8-5.1,20.8-7.4c14.1-4.8,28.5-8.2,43.2-10.3
		c14.7-1.9,29.9-2.1,44.4,0.6c1.8,0.3,3.5,0.7,5.3,1.1c1.7,0.5,3.4,0.7,5.1,0.6C7516.1,7292.6,7518.3,7291.1,7517.9,7288.9z"/>
	
		<linearGradient id="Trazado_30_00000053542797306712750750000016852189861755806628_" gradientUnits="userSpaceOnUse" x1="7421.4277" y1="7271.4912" x2="7421.8799" y2="7271.8999" gradientTransform="matrix(72.854 0 0 -107.3745 -533353.3125 788087.5625)">
		<stop  offset="0" style="stop-color:#473F3E"/>
		<stop  offset="1" style="stop-color:#0E0D0C"/>
	</linearGradient>
	<path id="Trazado_30" style="fill:url(#Trazado_30_00000053542797306712750750000016852189861755806628_);" d="M7369.1,7273.9
		c-3.4,1.4-5.6,4.8-5.3,8.5c0.3,3.8,3.4,7.2,6.8,10c3.7,3,8.1,5.6,11.2,9c1.5,1.6,2.7,3.4,3.4,5.5c0.6,2,0.8,4.1,0.6,6.2
		c-0.5,4.1-2.1,8.1-4.5,11.5c-2.3,3.4-5,6.4-8.2,9c-7.1,5.8-15.4,9.9-24.2,12c-2.8,0.9-5.7,1.2-8.6,1c-2.5-0.3-4.8-1.4-5.6-3.2
		c-0.3-1-0.4-2-0.3-3c0.1-1.1,0.3-2.3,0.5-3.4l1.1-7.2c0.2-1.1,0.3-2.3,0.5-3.4c0-0.2-0.2-0.4-0.5-0.3c0.5-5.8-1.4-11.5-4.2-16.8
		c-2.9-5.6-6.8-10.8-10.3-16.2c-3.5-5.3-6.6-10.9-7.8-16.8c-1.2-5.9-0.9-12.1,0.8-17.9c1.7-6,4.2-11.9,7.3-17.3
		c0.3-0.6,0.6-1.1,1-1.7c1,0.3,2.1,0.6,3.1,0.7c1.7,0.3,3.4,0.5,5.1,0.8c1.8,0.3,3.6,0.7,5.3,1.2c3.4,0.9,6.7,2.1,9.9,3.6
		c5.8,2.7,11.1,6.6,15.4,11.4c3.8,4.2,6.4,9.4,7.5,15c0.1,0.6,0.2,1.3,0.2,1.9C7369.3,7273.9,7369.2,7273.9,7369.1,7273.9z"/>
	
		<linearGradient id="Trazado_31_00000117663088582287506310000017334726704407798658_" gradientUnits="userSpaceOnUse" x1="7422.1719" y1="7271.7354" x2="7422.6299" y2="7272.3022" gradientTransform="matrix(64.3222 6.7878 10.2132 -96.7826 -544312.8125 660802.9375)">
		<stop  offset="0" style="stop-color:#473F3E"/>
		<stop  offset="1" style="stop-color:#0E0D0C"/>
	</linearGradient>
	<path id="Trazado_31" style="fill:url(#Trazado_31_00000117663088582287506310000017334726704407798658_);" d="M7358.4,7367.4
		c-5.2,21-26.3,72.2,1.9,70.2c38.7-5,58.6-66.7,56.4-77.8c-2.2-11-17.1-18.2-33.2-16.1C7367.4,7345.8,7361.1,7356.3,7358.4,7367.4z"
		/>
</g>
</svg>
